<svg width="36" height="14" viewBox="0 0 36 14" fill="none" xmlns="http://www.w3.org/2000/svg">
<circle cx="1.5" cy="7" r="1.5" fill="#05C168"/>
<path d="M7.03 10L9.62 2.71H11.15L13.74 10H12.6L12 8.3H8.77L8.17 10H7.03ZM9.03 7.45H11.73L10.93 5.2L10.42 3.71H10.36L9.85 5.2L9.03 7.45ZM16.639 10.09C16.1257 10.09 15.6757 9.97667 15.289 9.75C14.9023 9.52333 14.6023 9.20667 14.389 8.8C14.1757 8.38667 14.069 7.90667 14.069 7.36C14.069 6.81333 14.1757 6.33667 14.389 5.93C14.6023 5.51667 14.9057 5.19667 15.299 4.97C15.6923 4.74333 16.1523 4.63 16.679 4.63C17.1057 4.63 17.4857 4.71 17.819 4.87C18.159 5.03 18.429 5.25333 18.629 5.54C18.8357 5.82667 18.9523 6.16 18.979 6.54H17.979C17.919 6.19333 17.7657 5.93333 17.519 5.76C17.279 5.58 16.989 5.49 16.649 5.49C16.1623 5.49 15.7857 5.66333 15.519 6.01C15.2523 6.35 15.119 6.80333 15.119 7.37C15.119 7.96333 15.2557 8.42333 15.529 8.75C15.809 9.07 16.179 9.23 16.639 9.23C17.0257 9.23 17.339 9.12667 17.579 8.92C17.819 8.71333 17.959 8.44333 17.999 8.11H18.999C18.9723 8.51 18.8557 8.86 18.649 9.16C18.4423 9.45333 18.1657 9.68333 17.819 9.85C17.4723 10.01 17.079 10.09 16.639 10.09ZM21.5542 10C21.1209 10 20.8209 9.90667 20.6542 9.72C20.4942 9.52667 20.4142 9.25333 20.4142 8.9V5.55H19.4142V4.71H20.4142V3.18L21.4442 3.06V4.71H22.6142V5.55H21.4442V8.71C21.4442 8.88333 21.4776 9 21.5442 9.06C21.6109 9.12 21.7276 9.15 21.8942 9.15H22.6142V10H21.5542ZM23.638 3.9V2.71H24.668V3.9H23.638ZM23.638 10V4.71H24.668V10H23.638ZM27.2489 10L25.3489 4.71H26.4589L27.5189 7.97L27.8589 9.11H27.8989L28.2189 7.97L29.2789 4.71H30.3889L28.5089 10H27.2489ZM33.172 10.09C32.6453 10.09 32.1886 9.97667 31.802 9.75C31.422 9.52333 31.1286 9.20667 30.922 8.8C30.7153 8.39333 30.612 7.92 30.612 7.38C30.612 6.82 30.712 6.33667 30.912 5.93C31.1186 5.51667 31.412 5.19667 31.792 4.97C32.172 4.74333 32.6186 4.63 33.132 4.63C33.712 4.63 34.1886 4.76 34.562 5.02C34.942 5.27333 35.2153 5.62333 35.382 6.07C35.5486 6.51 35.6053 7.00667 35.552 7.56H31.632C31.6453 8.10667 31.7886 8.53 32.062 8.83C32.342 9.12333 32.712 9.27 33.172 9.27C33.5253 9.27 33.8253 9.19 34.072 9.03C34.3186 8.86333 34.4753 8.64333 34.542 8.37H35.522C35.4753 8.71667 35.3453 9.02 35.132 9.28C34.9186 9.53333 34.642 9.73333 34.302 9.88C33.9686 10.02 33.592 10.09 33.172 10.09ZM33.122 5.44C32.7086 5.44 32.3686 5.56333 32.102 5.81C31.842 6.05667 31.692 6.39667 31.652 6.83H34.542C34.5286 6.34333 34.3853 5.99 34.112 5.77C33.8453 5.55 33.5153 5.44 33.122 5.44Z" fill="#14CA74"/>
</svg>
