<svg width="10" height="10" viewBox="0 0 10 10" fill="none" xmlns="http://www.w3.org/2000/svg">
<path d="M9.23077 2.11131H7.27404C7.18148 1.57529 6.90255 1.0892 6.48649 0.738816C6.07042 0.388435 5.54395 0.196289 5 0.196289C4.45605 0.196289 3.92959 0.388435 3.51352 0.738816C3.09745 1.0892 2.81852 1.57529 2.72596 2.11131H0.769231C0.565218 2.11131 0.369561 2.19235 0.225302 2.33661C0.0810437 2.48087 0 2.67653 0 2.88054V9.03438C0 9.2384 0.0810437 9.43405 0.225302 9.57831C0.369561 9.72257 0.565218 9.80361 0.769231 9.80361H9.23077C9.43478 9.80361 9.63044 9.72257 9.7747 9.57831C9.91896 9.43405 10 9.2384 10 9.03438V2.88054C10 2.67653 9.91896 2.48087 9.7747 2.33661C9.63044 2.19235 9.43478 2.11131 9.23077 2.11131ZM5 0.957461C5.34099 0.958112 5.67217 1.07168 5.9418 1.28043C6.21144 1.48918 6.40434 1.78135 6.49038 2.11131H3.50962C3.59566 1.78135 3.78856 1.48918 4.0582 1.28043C4.32783 1.07168 4.65901 0.958112 5 0.957461Z" fill="#AEB9E1"/>
</svg>
