<svg width="20" height="21" viewBox="0 0 20 21" fill="none" xmlns="http://www.w3.org/2000/svg">
<path opacity="0.4" d="M17.5 9.78333V13.3083C17.5 15.9 15.4 18.0083 12.8 18.0083H7.19171C4.60004 18.0083 2.4917 15.9083 2.4917 13.3083V7.7C2.4917 5.10833 4.59171 3 7.19171 3H9.9917C12.5834 3 14.6917 5.29167 14.6917 7.88333C14.6917 8.375 15.1084 8.79166 15.6 8.79166H16.5084C17.0667 8.79166 17.4917 9.20834 17.4917 9.775L17.5 9.78333Z" fill="#AEB9E1"/>
<path d="M7.12488 7.00879H10.4916C10.9832 7.00879 11.3999 7.42545 11.3999 7.91712C11.3999 8.40879 10.9832 8.82546 10.4916 8.82546H7.12488C6.63322 8.82546 6.21655 8.40879 6.21655 7.91712C6.21655 7.42545 6.63322 7.00879 7.12488 7.00879ZM13.7166 13.4171C13.7166 12.9255 13.2999 12.5088 12.8082 12.5088H7.13322C6.64156 12.5088 6.22489 12.9255 6.22489 13.4171C6.22489 13.9088 6.64156 14.3255 7.13322 14.3255H12.8082C13.2999 14.3255 13.7166 13.9088 13.7166 13.4171Z" fill="#AEB9E1"/>
</svg>
