<svg width="17" height="18" viewBox="0 0 17 18" fill="none" xmlns="http://www.w3.org/2000/svg">
<path opacity="0.4" d="M14.875 8.96412V13.2496C14.875 14.6662 14.1667 15.3746 12.75 15.3746H4.25C2.83333 15.3746 2.125 14.6662 2.125 13.2496V8.95703C2.3375 9.20495 2.60666 9.39623 2.92541 9.52373C3.70458 9.82832 4.77417 10.1896 6.02083 10.4446C6.31125 10.5013 6.59458 10.3595 6.75749 10.1187C7.14 9.54496 7.7775 9.12711 8.5 9.12711C9.2225 9.12711 9.86 9.54496 10.2425 10.1187C10.4125 10.3595 10.6958 10.5013 10.9862 10.4446C12.2329 10.1896 13.3025 9.82832 14.0746 9.52373C14.3862 9.39623 14.6625 9.20495 14.875 8.96412Z" fill="#AEB9E1"/>
<path d="M14.875 6.875V8.96455C14.6625 9.20538 14.3862 9.39666 14.0746 9.52416C13.3025 9.82874 12.2329 10.19 10.9862 10.445C10.6958 10.5017 10.4125 10.36 10.2425 10.1191C9.86 9.54539 9.2225 9.12754 8.5 9.12754C7.7775 9.12754 7.14 9.54539 6.75749 10.1191C6.59458 10.36 6.31125 10.5017 6.02083 10.445C4.77417 10.19 3.70458 9.82874 2.92541 9.52416C2.60666 9.39666 2.3375 9.20538 2.125 8.95746V6.875C2.125 5.45833 2.83333 4.75 4.25 4.75H12.75C14.1667 4.75 14.875 5.45833 14.875 6.875Z" fill="#AEB9E1"/>
<path opacity="0.4" d="M11.8647 3.68783V4.75033H10.8022V3.68783C10.8022 3.58866 10.7242 3.51074 10.6251 3.51074H6.37508C6.27591 3.51074 6.198 3.58866 6.198 3.68783V4.75033H5.1355V3.68783C5.1355 3.00783 5.688 2.44824 6.37508 2.44824H10.6251C11.3051 2.44824 11.8647 3.00783 11.8647 3.68783Z" fill="#AEB9E1"/>
<path d="M8.5015 11.8337C8.11121 11.8337 7.79175 11.5163 7.79175 11.1253C7.79175 10.7343 8.10554 10.417 8.49583 10.417H8.5015C8.89179 10.417 9.20841 10.7343 9.20841 11.1253C9.20841 11.5163 8.89179 11.8337 8.5015 11.8337Z" fill="#AEB9E1"/>
</svg>
