<svg width="20" height="21" viewBox="0 0 20 21" fill="none" xmlns="http://www.w3.org/2000/svg">
<path d="M17.5 7.16699V8.83366H2.5V7.16699C2.5 5.50033 3.33333 4.66699 5 4.66699H15C16.6667 4.66699 17.5 5.50033 17.5 7.16699Z" fill="#AEB9E1"/>
<path opacity="0.4" d="M17.5 8.83301V13.833C17.5 15.4997 16.6667 16.333 15 16.333H5C3.33333 16.333 2.5 15.4997 2.5 13.833V8.83301H17.5Z" fill="#AEB9E1"/>
<path d="M8.33325 13.625H5.83325C5.48825 13.625 5.20825 13.345 5.20825 13C5.20825 12.655 5.48825 12.375 5.83325 12.375H8.33325C8.67825 12.375 8.95825 12.655 8.95825 13C8.95825 13.345 8.67825 13.625 8.33325 13.625Z" fill="#AEB9E1"/>
</svg>
