<svg width="20" height="21" viewBox="0 0 20 21" fill="none" xmlns="http://www.w3.org/2000/svg">
<path opacity="0.4" d="M3.88924 17.1662H12.7784C14.2601 17.1662 15.0009 16.4254 15.0009 14.9437V8.55454C15.0009 7.07287 14.2601 6.33203 12.7784 6.33203H3.88924C2.40757 6.33203 1.66675 7.07287 1.66675 8.55454V14.9437C1.66675 16.4254 2.40757 17.1662 3.88924 17.1662Z" fill="#AEB9E1"/>
<path d="M17.5001 6.05801V12.4413C17.5001 13.9247 16.7585 14.6663 15.2751 14.6663H15.0001V8.55801C15.0001 7.07467 14.2585 6.33301 12.7751 6.33301H4.16675V6.05801C4.16675 4.57467 4.90835 3.83301 6.39168 3.83301H15.2751C16.7585 3.83301 17.5001 4.57467 17.5001 6.05801Z" fill="#AEB9E1"/>
<path d="M8.33333 12.9978C8.04417 12.9978 7.75501 12.9078 7.50834 12.7286L3.68754 9.95031C3.40837 9.74698 3.34667 9.35615 3.55001 9.07699C3.75251 8.79949 4.14259 8.73615 4.42342 8.93865L8.24422 11.717C8.29755 11.7562 8.36909 11.7562 8.42326 11.717L12.2443 8.93865C12.5251 8.73532 12.915 8.79865 13.1175 9.07699C13.3208 9.35615 13.2591 9.74698 12.9799 9.95031L9.15914 12.7286C8.91164 12.9078 8.6225 12.9978 8.33333 12.9978Z" fill="#AEB9E1"/>
</svg>
