<svg width="14" height="15" viewBox="0 0 14 15" fill="none" xmlns="http://www.w3.org/2000/svg">
<path d="M6.57784 1.06102C6.76629 0.737472 7.23371 0.737471 7.42216 1.06102L9.41868 4.48883C9.48772 4.60736 9.60339 4.6914 9.73745 4.72043L13.6144 5.55998C13.9804 5.63923 14.1248 6.08377 13.8754 6.36298L11.2323 9.32104C11.1409 9.42332 11.0967 9.55931 11.1105 9.69577L11.5101 13.6425C11.5478 14.015 11.1697 14.2897 10.827 14.1387L7.19701 12.5391C7.07149 12.4838 6.92851 12.4838 6.80299 12.5391L3.17296 14.1387C2.83032 14.2897 2.45216 14.015 2.48988 13.6425L2.88948 9.69577C2.9033 9.55931 2.85911 9.42332 2.76772 9.32104L0.12464 6.36298C-0.124841 6.08377 0.0196004 5.63923 0.385551 5.55998L4.26255 4.72043C4.39661 4.6914 4.51228 4.60736 4.58132 4.48883L6.57784 1.06102Z" fill="#AEB9E1"/>
</svg>
