<svg width="20" height="21" viewBox="0 0 20 21" fill="none" xmlns="http://www.w3.org/2000/svg">
<path d="M6.66659 13.4997V6.33301H5.33317C3.99984 6.33301 3.33325 6.99967 3.33325 8.333V16.833C3.33325 18.1663 3.99984 18.833 5.33317 18.833H11.3333C12.6667 18.833 13.3333 18.1663 13.3333 16.833V15.4997H8.6665C7.33317 15.4997 6.66659 14.833 6.66659 13.4997Z" fill="#AEB9E1"/>
<path opacity="0.4" d="M14.5834 7.16667C13.1942 7.16667 12.5001 6.4725 12.5001 5.08333V3H8.66667C7.33333 3 6.66675 3.66666 6.66675 4.99999V6.33333V13.5C6.66675 14.8333 7.33333 15.5 8.66667 15.5H13.3334H14.6668C16.0002 15.5 16.6667 14.8333 16.6667 13.5V7.16667H14.5834Z" fill="#AEB9E1"/>
<path d="M12.5 5.08333C12.5 6.4725 13.1942 7.16667 14.5833 7.16667H16.6667L12.5 3V5.08333Z" fill="#AEB9E1"/>
</svg>
