<svg width="20" height="21" viewBox="0 0 20 21" fill="none" xmlns="http://www.w3.org/2000/svg">
<path opacity="0.4" d="M17.5 8.83301V14.6663C17.5 16.333 16.6667 17.1663 15 17.1663H5C3.33333 17.1663 2.5 16.333 2.5 14.6663V6.33301C2.5 4.66634 3.33333 3.83301 5 3.83301H8.33333L10.8333 6.33301H15C16.6667 6.33301 17.5 7.16634 17.5 8.83301Z" fill="#AEB9E1"/>
<path d="M7.49998 14.458C7.33998 14.458 7.17995 14.3972 7.05829 14.2747L5.39162 12.608C5.14745 12.3638 5.14745 11.968 5.39162 11.7238L7.05829 10.0571C7.30245 9.81298 7.69832 9.81298 7.94248 10.0571C8.18665 10.3013 8.18665 10.6972 7.94248 10.9413L6.71751 12.1663L7.94248 13.3913C8.18665 13.6355 8.18665 14.0313 7.94248 14.2755C7.81998 14.3972 7.65998 14.458 7.49998 14.458ZM10.4417 14.2747L12.1083 12.608C12.3525 12.3638 12.3525 11.968 12.1083 11.7238L10.4417 10.0571C10.1975 9.81298 9.80164 9.81298 9.55747 10.0571C9.31331 10.3013 9.31331 10.6972 9.55747 10.9413L10.7824 12.1663L9.55747 13.3913C9.31331 13.6355 9.31331 14.0313 9.55747 14.2755C9.67914 14.3972 9.83916 14.4588 9.99917 14.4588C10.1592 14.4588 10.32 14.3972 10.4417 14.2747Z" fill="#AEB9E1"/>
</svg>
