<svg width="105" height="19" viewBox="0 0 105 19" fill="none" xmlns="http://www.w3.org/2000/svg">
<path d="M0.0117188 0.707031V2.04912H2.69315V10.7262H4.32907V2.04912H6.99958V0.707031H0.0130784H0.0117188Z" fill="#EEF2FC"/>
<path d="M10.2921 6.31337H13.7498V4.97949H8.64795V10.725H14.1817V9.38978H10.2921V6.31337Z" fill="#EEF2FC"/>
<path d="M14.1817 0.688477H8.64795V2.03466H14.1817V0.688477Z" fill="#EEF2FC"/>
<path d="M22.3665 9.00178C21.9018 9.25598 21.3743 9.39265 20.762 9.39265C20.0964 9.39265 19.5169 9.23411 18.9894 8.93754C18.4728 8.63141 18.071 8.19817 17.7758 7.64876C17.4806 7.08842 17.333 6.43378 17.333 5.69304C17.333 4.95229 17.4806 4.30858 17.7758 3.74824C18.071 3.1879 18.4728 2.7656 18.9894 2.46903C19.5169 2.16289 20.0978 2.01392 20.762 2.01392C21.3743 2.01392 21.9018 2.15196 22.3665 2.4048C22.8202 2.66857 23.1796 3.05943 23.4434 3.58834H25.4169C25.037 2.62619 24.4356 1.88682 23.6115 1.35792C22.7779 0.839942 21.828 0.576172 20.762 0.576172C19.8326 0.576172 18.9785 0.797572 18.1967 1.23081C17.4054 1.66405 16.7931 2.27769 16.3394 3.05943C15.8747 3.83024 15.6533 4.70766 15.6533 5.69167C15.6533 6.67568 15.8747 7.55172 16.3394 8.33347C16.7931 9.11521 17.4054 9.71792 18.1858 10.1621C18.9662 10.5953 19.8217 10.8167 20.7606 10.8167C21.8266 10.8167 22.7765 10.553 23.6102 10.035C24.4329 9.51702 25.0356 8.77764 25.4156 7.8155H23.4421C23.1783 8.3444 22.8189 8.73528 22.3651 8.99905L22.3665 9.00178Z" fill="#EEF2FC"/>
<path d="M33.9135 0.695312V8.16697L28.9743 0.695312H27.3384V10.7254H28.9743V3.24281L33.9135 10.7254H35.5604V0.695312H33.9135Z" fill="#EEF2FC"/>
<path d="M46.7155 3.06334C46.2727 2.2816 45.6495 1.66796 44.8691 1.23472C44.0887 0.801482 43.2222 0.580078 42.2833 0.580078C41.3444 0.580078 40.4998 0.801482 39.7085 1.23472C38.9281 1.66796 38.3158 2.2816 37.8512 3.06334C37.3974 3.83415 37.176 4.71156 37.176 5.69558C37.176 6.67959 37.3974 7.56657 37.8512 8.34831C38.3158 9.13005 38.9281 9.74369 39.7085 10.1769C40.4998 10.6102 41.3553 10.8316 42.2833 10.8316C43.2113 10.8316 44.0887 10.6102 44.8691 10.1769C45.6495 9.74369 46.2727 9.13005 46.7155 8.34831C47.1692 7.56657 47.3906 6.67822 47.3906 5.69558C47.3906 4.71293 47.1692 3.83552 46.7155 3.06334ZM45.2695 7.64994C44.9743 8.21028 44.5725 8.64351 44.0559 8.94965C43.5393 9.25579 42.9475 9.40476 42.2833 9.40476C41.6191 9.40476 41.0273 9.25715 40.5107 8.94965C39.9941 8.64351 39.5923 8.21028 39.2971 7.64994C39.0019 7.0896 38.8543 6.43495 38.8543 5.69421C38.8543 4.95347 39.0019 4.30976 39.2971 3.74942C39.5923 3.18908 39.9941 2.76677 40.5107 2.4702C41.0273 2.16407 41.6191 2.0151 42.2833 2.0151C42.9475 2.0151 43.5393 2.1627 44.0559 2.4702C44.5725 2.76677 44.9743 3.18908 45.2695 3.74942C45.5647 4.30976 45.7123 4.95484 45.7123 5.69421C45.7123 6.43359 45.5647 7.0896 45.2695 7.64994Z" fill="#EEF2FC"/>
<path d="M58.98 6.39203C58.5795 5.91642 58.1039 5.63078 57.534 5.52555C58.0615 5.36701 58.4948 5.10324 58.8324 4.71237C59.1699 4.3215 59.3394 3.81446 59.3394 3.18989C59.3394 2.43958 59.0756 1.82594 58.5371 1.35033C58.0096 0.885657 57.2279 0.65332 56.2151 0.65332H52.8271V10.7258H56.3108C56.9969 10.7258 57.5777 10.6096 58.0739 10.3773C58.559 10.1449 58.9294 9.81694 59.1822 9.41513C59.446 9.00239 59.5731 8.54865 59.5731 8.03068C59.5731 7.40747 59.3722 6.85807 58.9827 6.39203H58.98ZM53.8303 1.4993H56.1414C56.8479 1.4993 57.3864 1.65783 57.7568 1.9749C58.1258 2.29197 58.3157 2.73614 58.3157 3.28555C58.3157 3.83496 58.1258 4.29963 57.7568 4.62764C57.3878 4.94471 56.8698 5.10324 56.1837 5.10324H53.8303V1.4993ZM57.9467 9.36183C57.5354 9.71034 56.9764 9.8798 56.237 9.8798H53.8303V5.93829H56.1947C56.9231 5.93829 57.493 6.11732 57.9153 6.4877C58.3485 6.84713 58.559 7.32274 58.559 7.93501C58.559 8.54729 58.3581 9.01333 57.9467 9.36183Z" fill="#EEF2FC"/>
<path d="M62.4323 9.91124V0.65332H61.4292V10.7258H66.0527V9.91261H62.4323V9.91124Z" fill="#EEF2FC"/>
<path d="M76.3422 3.02038C75.9199 2.23863 75.3185 1.62499 74.5587 1.19175C73.7988 0.74758 72.9542 0.537109 72.0153 0.537109C71.0764 0.537109 70.2317 0.748947 69.4828 1.19175C68.7229 1.62499 68.1216 2.23863 67.6883 3.02038C67.2455 3.80212 67.0337 4.69046 67.0337 5.68404C67.0337 6.67762 67.2442 7.56596 67.6883 8.34771C68.1216 9.12945 68.7229 9.74309 69.4828 10.1763C70.2317 10.6096 71.0764 10.831 72.0153 10.831C72.9542 10.831 73.7988 10.6096 74.5587 10.1763C75.3185 9.74309 75.9199 9.12945 76.3422 8.34771C76.7754 7.56596 76.9968 6.67762 76.9968 5.68404C76.9968 4.69046 76.7754 3.80349 76.3422 3.02038ZM75.4347 7.9459C75.0971 8.59098 74.6215 9.08708 74.0311 9.43559C73.4298 9.77316 72.7642 9.95356 72.0153 9.95356C71.2663 9.95356 70.5898 9.77452 69.9994 9.43559C69.3981 9.08708 68.9334 8.58961 68.5849 7.9459C68.2364 7.29126 68.0683 6.53959 68.0683 5.68404C68.0683 4.8285 68.2377 4.07819 68.5849 3.43311C68.9334 2.78804 69.3981 2.29193 69.9994 1.94343C70.5898 1.60586 71.2663 1.42545 72.0153 1.42545C72.7642 1.42545 73.4298 1.60449 74.0311 1.94343C74.6215 2.29193 75.0971 2.7894 75.4347 3.43311C75.7832 4.07819 75.9622 4.8285 75.9622 5.68404C75.9622 6.53959 75.7832 7.28989 75.4347 7.9459Z" fill="#EEF2FC"/>
<path d="M85.4407 9.37272C84.8503 9.75266 84.1423 9.93306 83.3086 9.93306C82.5597 9.93306 81.905 9.76359 81.3133 9.41509C80.7229 9.07752 80.2582 8.58005 79.9206 7.93497C79.5831 7.2899 79.4136 6.53959 79.4136 5.68404C79.4136 4.8285 79.5831 4.07819 79.9206 3.42218C80.2582 2.7771 80.7229 2.281 81.3133 1.93249C81.9037 1.58399 82.5583 1.41452 83.3086 1.41452C84.1423 1.41452 84.8489 1.60449 85.4407 1.99536C86.0311 2.3753 86.4752 2.90421 86.7595 3.59165H87.9417C87.5727 2.61994 86.9918 1.86962 86.1896 1.32978C85.3874 0.800878 84.4266 0.537109 83.3086 0.537109C82.3793 0.537109 81.5456 0.748947 80.7967 1.19175C80.0477 1.62499 79.4559 2.23863 79.0241 3.02038C78.5908 3.80212 78.3804 4.69046 78.3804 5.68404C78.3804 6.67762 78.5908 7.55503 79.0241 8.33678C79.4573 9.11852 80.0477 9.72123 80.7967 10.1654C81.5456 10.5986 82.3793 10.82 83.3086 10.82C84.417 10.82 85.3778 10.5563 86.1896 10.0274C86.9918 9.49846 87.5727 8.74815 87.9417 7.78737H86.7595C86.4752 8.46387 86.0311 8.99278 85.4407 9.37272Z" fill="#EEF2FC"/>
<path d="M91.8898 5.68408L96.5967 0.65332H95.3202L90.9509 5.36701V0.65332H89.9478V10.7258H90.9509V6.07495L95.3202 10.7258H96.639L91.8898 5.68408Z" fill="#EEF2FC"/>
<path d="M104.007 6.60343C103.721 6.24399 103.384 5.96929 102.983 5.79025C102.572 5.61122 102.044 5.43081 101.401 5.25178C100.831 5.09324 100.377 4.95521 100.05 4.81854C99.7237 4.68187 99.4381 4.49053 99.2276 4.22676C99.0062 3.96299 98.89 3.62406 98.89 3.20175C98.89 2.64141 99.0909 2.20817 99.4914 1.88017C99.9027 1.5631 100.399 1.40456 101.011 1.40456C101.666 1.40456 102.182 1.5631 102.562 1.88017C102.942 2.20817 103.175 2.57718 103.237 2.98992H104.335C104.25 2.26011 103.924 1.67926 103.343 1.21459C102.773 0.759486 102.024 0.538086 101.094 0.538086C100.462 0.538086 99.9014 0.654252 99.4053 0.886589C98.9201 1.10799 98.5402 1.43599 98.2655 1.8378C98.0017 2.25054 97.865 2.71521 97.865 3.23319C97.865 3.85639 98.0017 4.35387 98.2873 4.7133C98.562 5.08368 98.8996 5.35838 99.2905 5.52648C99.6909 5.69595 100.22 5.87499 100.895 6.05539C101.465 6.21392 101.919 6.35196 102.245 6.48863C102.572 6.61573 102.847 6.81663 103.068 7.0804C103.289 7.34417 103.395 7.69404 103.395 8.12728C103.395 8.65619 103.194 9.10993 102.804 9.45843C102.404 9.80694 101.865 9.98734 101.179 9.98734C100.44 9.98734 99.8809 9.79737 99.49 9.427C99.1101 9.05662 98.8996 8.62339 98.8463 8.13821H97.7803C97.8008 8.64525 97.9497 9.10993 98.2449 9.52267C98.5306 9.9354 98.931 10.262 99.4271 10.4848C99.9342 10.7171 100.514 10.8333 101.179 10.8333C101.845 10.8333 102.446 10.7062 102.942 10.4424C103.427 10.1882 103.798 9.83974 104.051 9.41743C104.294 8.99513 104.42 8.55095 104.42 8.07535C104.42 7.46171 104.283 6.97653 104.008 6.60616L104.007 6.60343Z" fill="#EEF2FC"/>
<path d="M25.1119 15.1992L24.5106 17.5458L23.8778 15.1992H23.4664L22.8009 17.5554L22.1995 15.1992H21.8196L22.5904 17.979L22.9908 17.9681L23.6564 15.7486L24.3001 17.9681H24.7005L25.5028 15.1992H25.1119Z" fill="#EEF2FC"/>
<path d="M28.574 15.4958V15.1992H27.0857V17.9681H28.574V17.6715H27.4547V16.7203H28.4578V16.4238H27.4547V15.4931H28.574V15.4958Z" fill="#EEF2FC"/>
<path d="M32.1735 16.9121C32.1202 16.8164 32.0574 16.733 31.9726 16.6688C31.8879 16.6059 31.8032 16.5636 31.6979 16.5417C31.8455 16.4993 31.9617 16.4255 32.0464 16.3094C32.1407 16.2041 32.1831 16.0661 32.1831 15.9076C32.1831 15.7709 32.1517 15.6533 32.0874 15.5481C32.0136 15.4429 31.918 15.3581 31.7813 15.2939C31.6542 15.231 31.4957 15.1982 31.3057 15.1982H30.3135V17.9671H31.3481C31.5271 17.9671 31.6856 17.9357 31.8237 17.8715C31.9617 17.8072 32.0669 17.7239 32.1407 17.6077C32.2145 17.4915 32.246 17.3644 32.246 17.2278C32.246 17.1225 32.2255 17.0159 32.1722 16.9107L32.1735 16.9121ZM30.6743 15.5071H31.2756C31.4547 15.5071 31.5818 15.5385 31.6761 15.6233C31.7717 15.6971 31.8127 15.8133 31.8127 15.9513C31.8127 16.0893 31.7704 16.2055 31.6761 16.2793C31.5818 16.364 31.4547 16.4064 31.2852 16.4064H30.6729V15.5085L30.6743 15.5071ZM31.7403 17.5462C31.6351 17.6309 31.497 17.6733 31.318 17.6733H30.6743V16.7016H31.3071C31.4765 16.7016 31.6241 16.744 31.7294 16.8287C31.8346 16.9244 31.8879 17.0405 31.8879 17.1991C31.8879 17.3467 31.8346 17.4628 31.7403 17.5476V17.5462Z" fill="#EEF2FC"/>
<path d="M34.3795 17.6412C34.6323 17.4294 34.8551 17.2504 35.0123 17.0918C35.1817 16.9333 35.3293 16.7543 35.466 16.5424C35.5931 16.3306 35.656 16.1201 35.656 15.8973C35.656 15.6336 35.5822 15.4217 35.4236 15.2741C35.2542 15.1265 35.0437 15.0527 34.769 15.0527C34.4943 15.0527 34.2838 15.1265 34.1143 15.296C33.9449 15.4545 33.8615 15.6869 33.8506 15.9834H34.1991C34.1991 15.7935 34.2524 15.6459 34.3576 15.5283C34.4519 15.4122 34.59 15.3589 34.769 15.3589C34.959 15.3589 35.0956 15.4122 35.1804 15.5065C35.2651 15.6117 35.2965 15.7388 35.2965 15.9192C35.2965 16.0996 35.2337 16.2896 35.1066 16.4796C34.9699 16.6586 34.8114 16.8499 34.6214 17.018C34.4314 17.1875 34.1676 17.4089 33.8301 17.6836V17.9378H35.7407V17.6412H34.3795Z" fill="#EEF2FC"/>
<path d="M41.6301 17.3451C41.6929 17.2604 41.7462 17.1756 41.7886 17.1018L42.1153 16.5305H41.7244L41.4497 16.9857L41.3868 17.1018L40.5531 16.2668C40.4575 16.1615 40.3837 16.0659 40.3427 15.9921C40.2894 15.9183 40.2689 15.8445 40.2689 15.7597C40.2689 15.675 40.3003 15.5903 40.3741 15.5383C40.437 15.4755 40.5217 15.4427 40.6269 15.4427C40.7212 15.4427 40.806 15.4741 40.8702 15.5383C40.9344 15.6026 40.9645 15.6859 40.9645 15.7925H41.3239C41.3349 15.6764 41.3034 15.5602 41.2501 15.4645C41.1968 15.3689 41.123 15.2855 41.0178 15.2322C40.9126 15.1789 40.7855 15.1475 40.6379 15.1475C40.5012 15.1475 40.3632 15.1789 40.2579 15.2322C40.1418 15.2855 40.057 15.3593 40.0051 15.4536C39.9422 15.5383 39.9094 15.6436 39.9094 15.7597C39.9094 15.865 39.9299 15.9606 39.9627 16.0454C40.0051 16.1301 40.068 16.2244 40.1527 16.3201C39.9313 16.4048 39.7727 16.521 39.6675 16.6686C39.5513 16.8162 39.498 16.9856 39.498 17.1756C39.498 17.3451 39.5404 17.4927 39.6251 17.6198C39.6989 17.7469 39.8151 17.8521 39.9627 17.9164C40.1103 17.9902 40.2798 18.0216 40.4698 18.0216C40.6597 18.0216 40.8388 17.9902 40.9864 17.9164C41.1449 17.8535 41.2816 17.7469 41.4196 17.6102L41.779 17.9697H42.2546L41.6314 17.3465L41.6301 17.3451ZM40.8497 17.6307C40.7445 17.684 40.6064 17.7155 40.4698 17.7155C40.2907 17.7155 40.1431 17.6622 40.027 17.5569C39.9217 17.4517 39.8575 17.3246 39.8575 17.166C39.8575 16.8913 40.027 16.6795 40.3645 16.5538L41.1873 17.367C41.082 17.4831 40.9659 17.5679 40.8497 17.6307Z" fill="#EEF2FC"/>
<path d="M49.1139 15.1992L48.5125 17.5458L47.8798 15.1992H47.4684L46.8028 17.5554L46.2015 15.1992H45.8215L46.5923 17.979L46.9928 17.9681L47.6583 15.7486L48.3021 17.9681H48.7025L49.5047 15.1992H49.1139Z" fill="#EEF2FC"/>
<path d="M52.5755 15.4958V15.1992H51.0872V17.9681H52.5755V17.6715H51.4562V16.7203H52.4593V16.4238H51.4562V15.4931H52.5755V15.4958Z" fill="#EEF2FC"/>
<path d="M56.1745 16.9121C56.1212 16.8164 56.0583 16.733 55.9736 16.6688C55.8889 16.6046 55.8041 16.5636 55.6989 16.5417C55.8465 16.4993 55.9627 16.4255 56.0474 16.3094C56.1417 16.2041 56.1841 16.0661 56.1841 15.9076C56.1841 15.7709 56.1526 15.6533 56.0884 15.5481C56.0146 15.4429 55.9189 15.3581 55.7823 15.2939C55.6552 15.231 55.4966 15.1982 55.3067 15.1982H54.3145V17.9671H55.349C55.5281 17.9671 55.6866 17.9357 55.8246 17.8715C55.9627 17.8072 56.0679 17.7239 56.1417 17.6077C56.2155 17.4915 56.2469 17.3644 56.2469 17.2278C56.2469 17.1225 56.2264 17.0159 56.1731 16.9107L56.1745 16.9121ZM54.6753 15.5071H55.2766C55.4461 15.5071 55.5827 15.5385 55.677 15.6233C55.7727 15.6971 55.8137 15.8133 55.8137 15.9513C55.8137 16.0893 55.7713 16.2055 55.677 16.2793C55.5827 16.364 55.4556 16.4064 55.2862 16.4064H54.6739V15.5085L54.6753 15.5071ZM55.7413 17.5462C55.636 17.6309 55.498 17.6733 55.319 17.6733H54.6753V16.7016H55.308C55.4775 16.7016 55.6251 16.744 55.7303 16.8287C55.8356 16.9244 55.8889 17.0405 55.8889 17.1991C55.8889 17.3467 55.8356 17.4628 55.7413 17.5476V17.5462Z" fill="#EEF2FC"/>
<path d="M59.5732 16.7107C59.4789 16.5836 59.3408 16.4989 59.1727 16.4565V16.436C59.3203 16.4046 59.4474 16.3308 59.5322 16.2146C59.6278 16.0875 59.6798 15.9508 59.6798 15.7814C59.6798 15.6433 59.6484 15.5176 59.5746 15.411C59.5117 15.2948 59.4051 15.2101 59.2793 15.1472C59.1522 15.0734 58.9937 15.042 58.8147 15.042C58.54 15.042 58.3186 15.1158 58.1491 15.2538C57.9796 15.3919 57.8853 15.5818 57.8744 15.8251H58.2229C58.2434 15.6871 58.3076 15.5709 58.4019 15.4875C58.5072 15.4028 58.6343 15.3604 58.8024 15.3604C58.9705 15.3604 59.0976 15.4028 59.1932 15.4875C59.278 15.5723 59.3299 15.6775 59.3299 15.8251C59.3299 15.9836 59.267 16.1107 59.1399 16.1845C59.0128 16.2583 58.8338 16.3007 58.5905 16.3116H58.4962V16.6082H58.581C58.8557 16.6082 59.0566 16.6506 59.1823 16.7353C59.319 16.831 59.3832 16.9676 59.3832 17.1686C59.3832 17.3271 59.3299 17.4433 59.2356 17.5485C59.1413 17.6442 59.0033 17.6865 58.8133 17.6865C58.6343 17.6865 58.4867 17.6442 58.3705 17.5389C58.2653 17.4433 58.1915 17.3066 58.1805 17.1481H57.832C57.8525 17.4228 57.9482 17.6346 58.1272 17.7713C58.3063 17.9189 58.5386 17.9927 58.8242 17.9927C59.0142 17.9927 59.1837 17.9612 59.3204 17.897C59.457 17.8232 59.5527 17.7275 59.6265 17.6114C59.6894 17.4843 59.7317 17.3476 59.7317 17.1986C59.7317 16.9977 59.6784 16.8392 59.5732 16.7121V16.7107Z" fill="#EEF2FC"/>
<path d="M65.4311 15.1992V16.954C65.4311 17.1973 65.3682 17.3873 65.2521 17.5034C65.125 17.6196 64.9678 17.6825 64.756 17.6825C64.5346 17.6825 64.3651 17.6196 64.2489 17.5034C64.1327 17.3873 64.0699 17.1973 64.0699 16.954V15.1992H63.7104V16.954C63.7104 17.1864 63.7528 17.3763 63.8471 17.5349C63.9319 17.6934 64.0576 17.8096 64.2161 17.8834C64.3747 17.9572 64.5537 17.9996 64.7437 17.9996C64.9446 17.9996 65.1127 17.9572 65.2712 17.8834C65.4297 17.8096 65.5568 17.6934 65.6511 17.5349C65.7468 17.3763 65.7878 17.1864 65.7878 16.954V15.1992H65.4284H65.4311Z" fill="#EEF2FC"/>
<path d="M69.3998 15.1992V17.3968L67.9429 15.1992H67.5835V17.9681H67.9429V15.7705L69.3998 17.9681H69.7593V15.1992H69.3998Z" fill="#EEF2FC"/>
<path d="M71.563 15.1992V17.9681H71.9224V15.1992H71.563Z" fill="#EEF2FC"/>
<path d="M73.5566 15.1992V15.4958H74.3165V17.9695H74.676V15.4958H75.4249V15.1992H73.5566Z" fill="#EEF2FC"/>
<path d="M78.5494 15.4958V15.1992H77.061V17.9681H78.5494V17.6715H77.4205V16.7203H78.4332V16.4238H77.4205V15.4931H78.5494V15.4958Z" fill="#EEF2FC"/>
<path d="M82.4444 15.8552C82.3173 15.6434 82.1492 15.4849 81.9374 15.3687C81.716 15.2635 81.4522 15.1992 81.1461 15.1992H80.2905V17.9681H81.1461C81.4522 17.9681 81.716 17.9148 81.9374 17.8096C82.1479 17.6934 82.3173 17.5349 82.4444 17.334C82.5606 17.1221 82.6139 16.8789 82.6139 16.5946C82.6139 16.3103 82.5606 16.0657 82.4444 15.8552ZM81.9702 17.3873C81.7802 17.5773 81.5055 17.6729 81.1474 17.6729H80.6513V15.4958H81.1474C81.5069 15.4958 81.7802 15.5915 81.9702 15.7924C82.1492 15.9823 82.2449 16.2475 82.2449 16.596C82.2449 16.9445 82.1602 17.1987 81.9702 17.3886V17.3873Z" fill="#EEF2FC"/>
<path d="M19.3871 16.4111H0.0102539V16.6599H19.3871V16.4111Z" fill="#EEF2FC"/>
<path d="M104.421 16.4111H85.0439V16.6599H104.421V16.4111Z" fill="#EEF2FC"/>
</svg>
