<svg width="20" height="21" viewBox="0 0 20 21" fill="none" xmlns="http://www.w3.org/2000/svg">
<path opacity="0.4" d="M11.2508 18.0004C11.1833 18.0004 11.1158 17.992 11.0475 17.9754C10.6008 17.8637 10.33 17.4112 10.4408 16.9645L13.7742 3.6312C13.8858 3.18453 14.34 2.91454 14.785 3.02454C15.2317 3.1362 15.5025 3.58871 15.3917 4.03538L12.0583 17.3687C11.9633 17.7479 11.6242 18.0004 11.2508 18.0004Z" fill="#AEB9E1"/>
<path opacity="0.4" d="M5.41757 18.0004C5.35007 18.0004 5.28258 17.992 5.21424 17.9754C4.76758 17.8637 4.49674 17.4112 4.60757 16.9645L7.94091 3.6312C8.05258 3.18453 8.50674 2.91454 8.95174 3.02454C9.39841 3.1362 9.66924 3.58871 9.55841 4.03538L6.22507 17.3687C6.13007 17.7479 5.79091 18.0004 5.41757 18.0004Z" fill="#AEB9E1"/>
<path d="M17.4999 8.41667H4.16659C3.70659 8.41667 3.33325 8.04333 3.33325 7.58333C3.33325 7.12333 3.70659 6.75 4.16659 6.75H17.4999C17.9599 6.75 18.3333 7.12333 18.3333 7.58333C18.3333 8.04333 17.9599 8.41667 17.4999 8.41667Z" fill="#AEB9E1"/>
<path d="M15.8334 14.2497H2.50008C2.04008 14.2497 1.66675 13.8763 1.66675 13.4163C1.66675 12.9563 2.04008 12.583 2.50008 12.583H15.8334C16.2934 12.583 16.6667 12.9563 16.6667 13.4163C16.6667 13.8763 16.2934 14.2497 15.8334 14.2497Z" fill="#AEB9E1"/>
</svg>
