<svg width="14" height="15" viewBox="0 0 14 15" fill="none" xmlns="http://www.w3.org/2000/svg">
<path d="M3.36257 14.2204C3.21408 14.2204 3.07168 14.1614 2.96668 14.0564C2.86169 13.9514 2.8027 13.809 2.8027 13.6605V10.6723C2.49555 10.8188 2.15515 10.8816 1.81594 10.8542C1.52872 10.8331 1.24969 10.749 0.998699 10.6078C0.747707 10.4665 0.530926 10.2717 0.363785 10.0372C0.196643 9.80269 0.0832509 9.53421 0.0316773 9.25088C-0.0198963 8.96754 -0.00838304 8.67632 0.0653976 8.39795C0.139178 8.11957 0.273412 7.86087 0.458547 7.64028C0.643681 7.41968 0.875164 7.2426 1.13652 7.12164C1.39788 7.00069 1.68268 6.93883 1.97067 6.94047C2.25865 6.9421 2.54274 7.0072 2.8027 7.13112V4.14284C2.8027 3.99435 2.86169 3.85195 2.96668 3.74696C3.07168 3.64196 3.21408 3.58298 3.36257 3.58298H6.63078C6.48426 3.27583 6.42149 2.93542 6.44882 2.59621C6.46992 2.309 6.55408 2.02997 6.69529 1.77897C6.8365 1.52798 7.0313 1.3112 7.26582 1.14406C7.50035 0.976917 7.76883 0.863524 8.05217 0.811951C8.3355 0.760377 8.62672 0.77189 8.9051 0.845671C9.18347 0.919452 9.44217 1.05369 9.66276 1.23882C9.88336 1.42395 10.0604 1.65544 10.1814 1.91679C10.3024 2.17815 10.3642 2.46296 10.3626 2.75094C10.3609 3.03893 10.2958 3.32301 10.1719 3.58298H13.4401C13.5886 3.58298 13.731 3.64196 13.836 3.74696C13.941 3.85195 14 3.99435 14 4.14284V7.13112C13.6929 6.9846 13.3524 6.92183 13.0132 6.94916C12.726 6.97027 12.447 7.05442 12.196 7.19563C11.945 7.33684 11.7282 7.53164 11.5611 7.76617C11.3939 8.00069 11.2805 8.26917 11.229 8.55251C11.1774 8.83584 11.1889 9.12706 11.2627 9.40544C11.3365 9.68382 11.4707 9.94251 11.6558 10.1631C11.841 10.3837 12.0725 10.5608 12.3338 10.6817C12.5952 10.8027 12.88 10.8646 13.168 10.8629C13.456 10.8613 13.74 10.7962 14 10.6723V13.6605C14 13.809 13.941 13.9514 13.836 14.0564C13.731 14.1614 13.5886 14.2204 13.4401 14.2204H3.36257Z" fill="#AEB9E1"/>
</svg>
