<svg width="10" height="10" viewBox="0 0 10 10" fill="none" xmlns="http://www.w3.org/2000/svg">
<path d="M2.85847 5.03442C3.30669 5.96003 4.05516 6.70657 4.98191 7.15241C5.05027 7.18478 5.12589 7.19879 5.20131 7.19307C5.27673 7.18734 5.34936 7.16207 5.41205 7.11975L6.77322 6.21048C6.83336 6.16969 6.90285 6.1448 6.97522 6.13814C7.04758 6.13147 7.12044 6.14325 7.18702 6.17237L9.73515 7.26675C9.82224 7.303 9.89499 7.36687 9.94222 7.44853C9.98944 7.53019 10.0085 7.6251 9.99649 7.71867C9.91573 8.34902 9.60805 8.92835 9.13103 9.34825C8.654 9.76816 8.04032 9.99986 7.40481 10C5.44093 10 3.55749 9.21985 2.16882 7.83118C0.780148 6.44251 0 4.55907 0 2.59519C0.000143231 1.95968 0.231844 1.346 0.651746 0.868973C1.07165 0.391948 1.65098 0.0842684 2.28134 0.00350591C2.3749 -0.0085123 2.46981 0.0105589 2.55147 0.0577827C2.63313 0.105007 2.697 0.177764 2.73325 0.264852L3.82763 2.81842C3.85609 2.88395 3.868 2.95547 3.8623 3.02668C3.8566 3.09789 3.83348 3.16661 3.79497 3.22678L2.8857 4.60973C2.84522 4.67228 2.82146 4.74417 2.81669 4.81853C2.81193 4.89288 2.82631 4.96721 2.85847 5.03442Z" fill="#AEB9E1"/>
</svg>
