<svg width="25" height="24" viewBox="0 0 25 24" fill="none" xmlns="http://www.w3.org/2000/svg">
<path opacity="0.4" d="M8.33057 18.069L8.32758 18.067C7.39558 17.527 6.24556 17.525 5.31256 18.063C5.15356 18.155 4.94958 18.1 4.85758 17.942L3.18558 15.057C3.09358 14.898 3.14755 14.695 3.30655 14.603L3.31555 14.598C4.24355 14.06 4.81456 13.067 4.81156 11.995C4.80856 10.924 4.23758 9.93596 3.31058 9.39896L3.30557 9.39597C3.14757 9.30397 3.09357 9.10198 3.18457 8.94498L4.85758 6.05698C4.94958 5.89898 5.15158 5.84497 5.31058 5.93597C6.24458 6.47397 7.39458 6.47298 8.32758 5.93198L8.33057 5.93097C9.25557 5.39497 9.82556 4.40598 9.82556 3.33698C9.82556 3.15098 9.97657 3.00098 10.1626 3.00098H14.1176C14.3036 3.00098 14.4546 3.15198 14.4546 3.33698C14.4546 4.40598 15.0246 5.39497 15.9496 5.93097L15.9526 5.93198C16.8856 6.47298 18.0356 6.47397 18.9696 5.93597C19.1286 5.84497 19.3306 5.89898 19.4226 6.05698L21.0946 8.94296C21.1866 9.10196 21.1326 9.30497 20.9736 9.39697L20.9656 9.40097C20.0386 9.93797 19.4676 10.93 19.4696 12.001C19.4716 13.073 20.0426 14.064 20.9706 14.602L20.9746 14.604C21.1326 14.696 21.1866 14.898 21.0946 15.055L19.4216 17.943C19.3296 18.101 19.1276 18.155 18.9686 18.064C18.0346 17.526 16.8836 17.527 15.9516 18.068L15.9496 18.069C15.0236 18.606 14.4546 19.594 14.4546 20.664C14.4546 20.849 14.3036 20.999 14.1186 20.999H10.1596C9.97358 20.999 9.82258 20.849 9.82358 20.663C9.82458 19.595 9.25557 18.606 8.33057 18.069Z" fill="white"/>
<path d="M12.1416 15C13.7985 15 15.1416 13.6569 15.1416 12C15.1416 10.3431 13.7985 9 12.1416 9C10.4847 9 9.1416 10.3431 9.1416 12C9.1416 13.6569 10.4847 15 12.1416 15Z" fill="white"/>
</svg>
