<svg width="48" height="18" viewBox="0 0 48 18" fill="none" xmlns="http://www.w3.org/2000/svg">
<rect width="48" height="18" rx="2" fill="#05C168" fill-opacity="0.2"/>
<rect x="0.3" y="0.3" width="47.4" height="17.4" rx="1.7" stroke="#05C168" stroke-opacity="0.5" stroke-width="0.6"/>
<circle cx="7.5" cy="9" r="1.5" fill="#05C168"/>
<path d="M13.03 12L15.62 4.71H17.15L19.74 12H18.6L18 10.3H14.77L14.17 12H13.03ZM15.03 9.45H17.73L16.93 7.2L16.42 5.71H16.36L15.85 7.2L15.03 9.45ZM22.639 12.09C22.1257 12.09 21.6757 11.9767 21.289 11.75C20.9023 11.5233 20.6023 11.2067 20.389 10.8C20.1757 10.3867 20.069 9.90667 20.069 9.36C20.069 8.81333 20.1757 8.33667 20.389 7.93C20.6023 7.51667 20.9057 7.19667 21.299 6.97C21.6923 6.74333 22.1523 6.63 22.679 6.63C23.1057 6.63 23.4857 6.71 23.819 6.87C24.159 7.03 24.429 7.25333 24.629 7.54C24.8357 7.82667 24.9523 8.16 24.979 8.54H23.979C23.919 8.19333 23.7657 7.93333 23.519 7.76C23.279 7.58 22.989 7.49 22.649 7.49C22.1623 7.49 21.7857 7.66333 21.519 8.01C21.2523 8.35 21.119 8.80333 21.119 9.37C21.119 9.96333 21.2557 10.4233 21.529 10.75C21.809 11.07 22.179 11.23 22.639 11.23C23.0257 11.23 23.339 11.1267 23.579 10.92C23.819 10.7133 23.959 10.4433 23.999 10.11H24.999C24.9723 10.51 24.8557 10.86 24.649 11.16C24.4423 11.4533 24.1657 11.6833 23.819 11.85C23.4723 12.01 23.079 12.09 22.639 12.09ZM27.5542 12C27.1209 12 26.8209 11.9067 26.6542 11.72C26.4942 11.5267 26.4142 11.2533 26.4142 10.9V7.55H25.4142V6.71H26.4142V5.18L27.4442 5.06V6.71H28.6142V7.55H27.4442V10.71C27.4442 10.8833 27.4776 11 27.5442 11.06C27.6109 11.12 27.7276 11.15 27.8942 11.15H28.6142V12H27.5542ZM29.638 5.9V4.71H30.668V5.9H29.638ZM29.638 12V6.71H30.668V12H29.638ZM33.2489 12L31.3489 6.71H32.4589L33.5189 9.97L33.8589 11.11H33.8989L34.2189 9.97L35.2789 6.71H36.3889L34.5089 12H33.2489ZM39.172 12.09C38.6453 12.09 38.1886 11.9767 37.802 11.75C37.422 11.5233 37.1286 11.2067 36.922 10.8C36.7153 10.3933 36.612 9.92 36.612 9.38C36.612 8.82 36.712 8.33667 36.912 7.93C37.1186 7.51667 37.412 7.19667 37.792 6.97C38.172 6.74333 38.6186 6.63 39.132 6.63C39.712 6.63 40.1886 6.76 40.562 7.02C40.942 7.27333 41.2153 7.62333 41.382 8.07C41.5486 8.51 41.6053 9.00667 41.552 9.56H37.632C37.6453 10.1067 37.7886 10.53 38.062 10.83C38.342 11.1233 38.712 11.27 39.172 11.27C39.5253 11.27 39.8253 11.19 40.072 11.03C40.3186 10.8633 40.4753 10.6433 40.542 10.37H41.522C41.4753 10.7167 41.3453 11.02 41.132 11.28C40.9186 11.5333 40.642 11.7333 40.302 11.88C39.9686 12.02 39.592 12.09 39.172 12.09ZM39.122 7.44C38.7086 7.44 38.3686 7.56333 38.102 7.81C37.842 8.05667 37.692 8.39667 37.652 8.83H40.542C40.5286 8.34333 40.3853 7.99 40.112 7.77C39.8453 7.55 39.5153 7.44 39.122 7.44Z" fill="#14CA74"/>
</svg>
