<svg width="20" height="21" viewBox="0 0 20 21" fill="none" xmlns="http://www.w3.org/2000/svg">
<path opacity="0.4" fill-rule="evenodd" clip-rule="evenodd" d="M5 15.4995H15C16.6667 15.4995 17.5 14.602 17.5 12.807V6.5245C17.5 4.7295 16.6667 3.83203 15 3.83203H5C3.33333 3.83203 2.5 4.7295 2.5 6.5245V12.807C2.5 14.602 3.33333 15.4995 5 15.4995Z" fill="#AEB9E1"/>
<path d="M14.1666 18.625H5.83325C5.48825 18.625 5.20825 18.345 5.20825 18C5.20825 17.655 5.48825 17.375 5.83325 17.375H14.1666C14.5116 17.375 14.7916 17.655 14.7916 18C14.7916 18.345 14.5116 18.625 14.1666 18.625Z" fill="#AEB9E1"/>
<path d="M12.1516 9.0446L9.52751 7.43877C9.00501 7.1196 8.33325 7.49383 8.33325 8.10466V11.2272C8.33325 11.8381 9.00501 12.2131 9.52751 11.8931L12.1516 10.2873C12.6158 10.0031 12.6158 9.3296 12.1516 9.0446Z" fill="#AEB9E1"/>
</svg>
