<svg width="20" height="21" viewBox="0 0 20 21" fill="none" xmlns="http://www.w3.org/2000/svg">
<path d="M16.3558 7.79329C16.1025 8.58913 15.4526 9.235 14.6551 9.48417C13.3651 9.8875 12.1383 9.33417 11.525 8.36001C11.4766 8.28334 11.48 8.18669 11.5242 8.10752C11.8867 7.46086 12.0925 6.71417 12.0925 5.91667C12.0925 5.64 12.0683 5.36998 12.02 5.10581C12.0041 5.01915 12.0308 4.92914 12.0983 4.87164C12.5608 4.47914 13.1592 4.25 13.8009 4.25C15.5642 4.25 16.9391 5.95913 16.3558 7.79329Z" fill="#AEB9E1"/>
<path opacity="0.4" d="M18.75 14.3991C18.75 15.9158 17.9084 16.7491 16.3834 16.7491H15.1666C15.0333 16.7491 14.9225 16.6416 14.9225 16.4999C14.9225 16.4666 14.9251 16.4357 14.9334 16.399C14.9834 16.124 15 15.8241 15 15.5157C15 13.9157 14.4583 12.3074 13.2916 11.1824C13.2833 11.174 13.2751 11.1658 13.2667 11.1574C13.2167 11.1158 13.1917 11.049 13.1917 10.9824C13.1917 10.8407 13.3 10.7324 13.4417 10.7324H15.0917C17.7917 10.7324 18.75 12.7074 18.75 14.3991Z" fill="#AEB9E1"/>
<path d="M7.50832 9.25065C9.34927 9.25065 10.8417 7.75827 10.8417 5.91732C10.8417 4.07637 9.34927 2.58398 7.50832 2.58398C5.66737 2.58398 4.17499 4.07637 4.17499 5.91732C4.17499 7.75827 5.66737 9.25065 7.50832 9.25065Z" fill="#AEB9E1"/>
<path opacity="0.4" d="M13.75 15.516C13.75 17.416 12.7417 18.416 10.8333 18.416H4.16667C2.25833 18.416 1.25 17.416 1.25 15.516C1.25 13.391 2.45 10.916 5.83333 10.916H9.16667C12.55 10.916 13.75 13.391 13.75 15.516Z" fill="#AEB9E1"/>
</svg>
